# xmcd CD database file
#
# Track frame offsets:
#	150
#	12429
#	26964
#	41145
#	56454
#	72135
#	84126
#	96150
#	109588
#	135664
#	147751
#	161492
#	172688
#	185408
#	203318
#	215261
#	229341
#	236707
#	248135
#	259964
#	270734
#	284156
#	290148
#	302571
#	318342
#
# Disc length: 4375 seconds
#
# Revision: 0
# Processed by: cddbd v1.5.2PL0 Copyright (c) Steve Scherf et al.
# Submitted via: CDex 1.70beta2
#
DISCID=68111519
DTITLE=Mix - Heroes Collection Country Loce CD 2
DYEAR=2010
DGENRE=Country
TTITLE0=Keep On Lovin' Me
TTITLE1=Only One You
TTITLE2=Temporarily Yours
TTITLE3=My Washington Woman
TTITLE4=I Thought It Was You
TTITLE5=Sweet Dreams
TTITLE6=When You Walk In The Room (Live)
TTITLE7=(Without You) What Do I Do With Me? (Live)
TTITLE8=I'll Still Be Lovin' You
TTITLE9=Lovin' You Is Killin' Me
TTITLE10=I Created Me Right Out Of You
TTITLE11=The Heart You Break May Be Your Own
TTITLE12=Crazy Blue Eyes
TTITLE13=Tell Me A Lie
TTITLE14=Before The Next Teardrop Falls (Live)
TTITLE15=Do I Love You
TTITLE16=Lookin' For Love (Live)
TTITLE17=I Can't Stop Loving You
TTITLE18=There Goes My Heart Again
TTITLE19=Back In The Arms Of Love
TTITLE20=Everything But You
TTITLE21=Have I Told ou Lately That I Love You?
TTITLE22=Crazy Arms
TTITLE23=You're My First Lady
TTITLE24=There You Go
EXTD=YEAR: 2010
EXTT0=
EXTT1=
EXTT2=
EXTT3=
EXTT4=
EXTT5=
EXTT6=
EXTT7=
EXTT8=
EXTT9=
EXTT10=
EXTT11=
EXTT12=
EXTT13=
EXTT14=
EXTT15=
EXTT16=
EXTT17=
EXTT18=
EXTT19=
EXTT20=
EXTT21=
EXTT22=
EXTT23=
EXTT24=
PLAYORDER=
